<svg width="137" height="137" viewBox="0 0 137 137" fill="none" xmlns="http://www.w3.org/2000/svg">
<g clip-path="url(#clip0_24_2)">
<rect width="137" height="137" fill="white"/>
<path d="M133.118 68.5C133.118 32.8123 104.188 3.88167 68.5 3.88167C32.8123 3.88167 3.88167 32.8123 3.88167 68.5C3.88167 104.188 32.8123 133.118 68.5 133.118V137C30.6685 137 0 106.332 0 68.5C0 30.6685 30.6685 0 68.5 0C106.332 0 137 30.6685 137 68.5C137 106.332 106.332 137 68.5 137V133.118C104.188 133.118 133.118 104.188 133.118 68.5Z" fill="black"/>
<path d="M6.85 68.5C6.85 67.9956 7.25891 67.5867 7.76333 67.5867C8.26775 67.5867 8.67667 67.9956 8.67667 68.5C8.67667 101.666 35.5627 128.552 68.7283 128.552C101.894 128.552 128.78 101.666 128.78 68.5C128.78 67.9956 129.189 67.5867 129.693 67.5867C130.198 67.5867 130.607 67.9956 130.607 68.5C130.607 102.674 102.903 130.378 68.7283 130.378C34.5539 130.378 6.85 102.674 6.85 68.5ZM68.7283 6.62167C96.1888 6.62167 119.469 24.5087 127.558 49.2647C127.715 49.7442 127.453 50.2597 126.974 50.4164C126.494 50.5731 125.979 50.3114 125.822 49.832C117.971 25.8049 95.3754 8.44833 68.7283 8.44833C42.0813 8.44833 19.4858 25.8049 11.6347 49.832C11.4781 50.3114 10.9623 50.5731 10.4828 50.4164C10.0034 50.2597 9.74173 49.7442 9.89838 49.2647C17.9876 24.5087 41.2679 6.62167 68.7283 6.62167Z" fill="black"/>
<path d="M59.7045 118.829C60.0931 118.507 60.6688 118.562 60.9904 118.95C61.9216 120.075 63.2999 121.884 64.417 123.665C64.9746 124.555 65.4815 125.461 65.8338 126.285C66.1677 127.066 66.4351 127.934 66.3284 128.681C66.257 129.18 65.7944 129.527 65.2951 129.456C64.7957 129.385 64.4487 128.922 64.52 128.423C64.5503 128.211 64.4724 127.747 64.1541 127.003C63.8542 126.301 63.4021 125.485 62.8695 124.636C61.806 122.939 60.4787 121.197 59.5832 120.115C59.2616 119.726 59.3159 119.151 59.7045 118.829ZM76.9499 118.249C77.2803 117.868 77.8571 117.827 78.2383 118.157C78.6194 118.488 78.6607 119.065 78.3304 119.446C77.2651 120.675 76.5589 122.313 76.0067 124.035C75.7323 124.891 75.5024 125.746 75.2822 126.566C75.065 127.375 74.8536 128.164 74.6235 128.844C74.4619 129.322 73.9436 129.578 73.4658 129.417C72.988 129.255 72.7316 128.737 72.8932 128.259C73.1007 127.645 73.2966 126.917 73.5182 126.092C73.7369 125.278 73.9774 124.382 74.2672 123.478C74.8433 121.681 75.6406 119.76 76.9499 118.249ZM94.2787 82.4511L94.2785 82.4517C94.2784 82.4522 94.2781 82.453 94.2778 82.454C94.2773 82.456 94.2766 82.459 94.2756 82.4629C94.2735 82.4708 94.2703 82.4827 94.2662 82.4984C94.258 82.5298 94.2458 82.5767 94.2299 82.6379C94.198 82.7604 94.1513 82.9408 94.0916 83.1715C93.9723 83.6332 93.8014 84.2968 93.5959 85.1041C93.2044 86.6426 92.6875 88.702 92.1597 90.8796C94.1423 94.8025 97.012 100.618 99.2479 106.074C100.394 108.871 101.383 111.597 102 113.939C102.309 115.11 102.529 116.203 102.626 117.173C102.721 118.132 102.703 119.032 102.486 119.786C102.346 120.27 101.84 120.55 101.355 120.41C100.871 120.27 100.591 119.764 100.731 119.279C100.856 118.845 100.893 118.208 100.808 117.355C100.724 116.513 100.528 115.519 100.234 114.404C99.6464 112.174 98.6903 109.532 97.5574 106.767C95.6907 102.211 93.3698 97.3875 91.5012 93.6392C90.9195 96.1247 90.3881 98.5372 90.0697 100.306C89.9797 100.806 89.7142 101.226 89.4514 101.545C89.1821 101.871 88.8632 102.152 88.5755 102.376C88.3807 102.528 88.1902 102.659 88.0241 102.768C88.3798 104.763 88.5714 106.554 88.4502 108.028C88.3166 109.652 87.7815 111.1 86.4373 111.891C85.1886 112.626 83.5811 112.585 82.446 112.438C81.8514 112.361 81.3257 112.245 80.9491 112.15C80.8963 112.136 80.8465 112.123 80.7995 112.11C79.8371 112.865 79.1556 113.507 78.5732 114.062C77.9338 114.671 77.3488 115.242 76.6404 115.685C75.1684 116.607 73.296 116.907 69.3059 116.907C65.0469 116.907 62.857 116.664 61.1895 115.789C60.3512 115.349 59.6874 114.772 58.9896 114.097C58.3573 113.484 57.7233 112.819 56.845 111.99C56.8141 111.998 56.7824 112.007 56.7493 112.016C56.3727 112.111 55.8472 112.227 55.2527 112.304C54.1175 112.451 52.5098 112.492 51.2611 111.757C49.9169 110.966 49.3818 109.519 49.2482 107.894C49.127 106.42 49.3183 104.629 49.6741 102.634C49.508 102.525 49.3178 102.394 49.1231 102.242C48.8354 102.018 48.5165 101.737 48.2472 101.411C47.9843 101.092 47.7187 100.672 47.6287 100.172C47.1207 97.3501 46.0715 92.8954 45.1433 89.1256C44.81 87.7719 44.4931 86.5103 44.2242 85.45C43.8998 86.3895 43.5463 87.3622 43.1971 88.3463C42.4275 90.5157 41.6657 92.7823 41.2026 95.0549C39.0769 105.486 39.5197 115.344 41.1899 121.579C41.3204 122.067 41.0311 122.568 40.5439 122.698C40.0567 122.829 39.5559 122.539 39.4254 122.052C37.9617 116.588 37.4197 108.621 38.5406 99.9411C37.7472 101.129 36.8822 102.323 35.9971 103.581C33.9441 106.499 31.7038 109.862 29.7319 114.523C29.5354 114.987 28.9995 115.204 28.535 115.008C28.0705 114.811 27.8532 114.275 28.0498 113.811C30.0966 108.973 32.4232 105.486 34.5031 102.53C36.5821 99.5751 38.3369 97.2462 39.4314 94.6002C39.9236 92.223 40.7132 89.8842 41.4755 87.7355C42.2572 85.532 42.9951 83.5656 43.417 81.8658L43.6467 80.9399L44.5618 81.2097C46.165 81.6825 47.5912 82.3128 49.5537 82.534C51.4559 82.7484 53.8432 82.558 57.0889 81.2396L57.1447 81.2184C57.2872 81.1682 57.5154 81.1173 57.7786 81.1859C58.1292 81.2773 58.344 81.5255 58.448 81.7536C58.5378 81.9505 58.5526 82.1397 58.5546 82.2551C58.5567 82.3826 58.5436 82.5077 58.5265 82.619C58.4614 83.0409 58.2775 83.6221 58.0468 84.2659C57.5746 85.5837 56.7918 87.4677 55.9403 89.553C54.2133 93.7826 52.1985 98.8582 51.5862 102.337L51.5851 102.344L51.5839 102.35C51.1614 104.565 50.9563 106.376 51.0688 107.745C51.1816 109.115 51.5907 109.832 52.1873 110.183C52.8794 110.59 53.9549 110.63 55.0174 110.492C55.5217 110.427 55.9738 110.328 56.3 110.245C56.4623 110.204 56.5916 110.167 56.6786 110.141C56.7095 110.132 56.735 110.124 56.7547 110.118L57.5344 109.749L55.4984 108.149C55.1018 107.837 55.0328 107.263 55.3443 106.867C55.6559 106.47 56.2303 106.401 56.6269 106.713L59.8236 109.224L59.8307 109.23L59.8376 109.236C60.3849 109.683 60.7435 109.855 61.1911 109.947C61.7103 110.052 62.3718 110.057 63.5975 110.057C64.6796 110.057 66.0258 109.819 67.1398 109.566C67.6886 109.441 68.1659 109.316 68.5054 109.222C68.6748 109.176 68.8095 109.137 68.9009 109.11C68.9466 109.097 68.9816 109.086 69.0046 109.08C69.0161 109.076 69.0246 109.073 69.03 109.072C69.0327 109.071 69.0347 109.07 69.0358 109.07L69.0369 109.07L69.3785 108.964L69.701 109.119C69.7014 109.119 69.702 109.119 69.703 109.12C69.7059 109.121 69.7112 109.124 69.7186 109.127C69.7333 109.134 69.7569 109.145 69.7884 109.159C69.8515 109.187 69.9467 109.229 70.0693 109.28C70.3153 109.381 70.6691 109.518 71.0928 109.654C71.9514 109.93 73.0479 110.191 74.1009 110.191C75.3266 110.191 75.9882 110.186 76.5075 110.081C76.955 109.989 77.3138 109.817 77.861 109.37L77.869 109.363L81.1799 106.717C81.5739 106.402 82.1487 106.467 82.4636 106.861C82.7785 107.255 82.7142 107.829 82.3202 108.144L80.1517 109.877L80.9437 110.252C80.9634 110.258 80.9888 110.266 81.0198 110.275C81.1068 110.301 81.2362 110.338 81.3986 110.379C81.7249 110.462 82.1769 110.561 82.6812 110.626C83.7437 110.764 84.819 110.724 85.5111 110.317C86.1077 109.966 86.517 109.249 86.6298 107.879C86.7423 106.511 86.5372 104.699 86.1147 102.484L86.1133 102.478L86.1122 102.471C85.4999 98.9922 83.4851 93.9164 81.7581 89.6868C80.9066 87.6015 80.1238 85.7177 79.6515 84.3999C79.4208 83.7561 79.2372 83.175 79.1721 82.753C79.155 82.6417 79.1419 82.5166 79.144 82.3891C79.146 82.2737 79.1606 82.0845 79.2504 81.8876C79.3544 81.6595 79.5692 81.4113 79.9198 81.3199C80.1831 81.2513 80.4114 81.3022 80.554 81.3524L80.6097 81.3736L80.9114 81.494C84.004 82.7036 86.3019 82.8757 88.1447 82.668C90.1072 82.4468 91.5335 81.8165 93.1368 81.3438L94.6881 80.8864L94.2787 82.4511ZM69.2421 110.913C69.1688 110.934 69.0846 110.958 68.9906 110.984C68.6308 111.083 68.1261 111.215 67.5447 111.347C66.3983 111.607 64.8901 111.883 63.5975 111.883C62.4486 111.883 61.5688 111.888 60.8265 111.737C60.1958 111.608 59.6798 111.374 59.1497 111.005L58.685 111.225C59.3108 111.835 59.827 112.365 60.2604 112.785C60.9219 113.425 61.4355 113.855 62.0384 114.171C63.2536 114.809 65.0025 115.08 69.3059 115.08C73.3073 115.08 74.6887 114.752 75.6713 114.137C76.1902 113.812 76.6328 113.388 77.3134 112.74C77.748 112.326 78.2542 111.847 78.897 111.304L78.5485 111.139C78.0183 111.507 77.5026 111.742 76.8719 111.871C76.1296 112.022 75.2498 112.017 74.1009 112.017C72.7792 112.017 71.4782 111.697 70.5329 111.393C70.0548 111.239 69.655 111.085 69.373 110.968C69.326 110.949 69.2825 110.93 69.2421 110.913ZM55.8866 95.7945C56.09 95.504 56.5569 95.075 57.2307 95.2565C57.7379 95.3931 58.0448 95.8219 58.2214 96.1248C59.7151 98.6854 61.4808 99.8956 62.5627 100.643C62.8253 100.824 63.0994 101.013 63.3052 101.19C63.4105 101.281 63.5321 101.397 63.635 101.537C63.7375 101.678 63.8593 101.893 63.8834 102.174C63.9387 102.82 63.4703 103.197 63.2372 103.351C62.9681 103.53 62.6064 103.684 62.2041 103.834C61.2515 104.189 60.3058 104.309 59.3783 104.142C58.4507 103.976 57.6055 103.535 56.8358 102.871C56.1502 102.279 55.7741 101.37 55.5695 100.528C55.3586 99.6605 55.2946 98.7193 55.3383 97.9102C55.3602 97.5041 55.4103 97.1135 55.4901 96.769C55.5657 96.4428 55.6846 96.083 55.8866 95.7945ZM80.415 95.256C81.089 95.0744 81.5557 95.5035 81.7592 95.7941C81.9611 96.0826 82.0802 96.4423 82.1559 96.7685C82.2357 97.1131 82.2858 97.5037 82.3077 97.9097C82.3514 98.7188 82.2874 99.66 82.0765 100.528C81.8718 101.369 81.4957 102.278 80.8102 102.87C80.0405 103.535 79.1953 103.975 78.2677 104.142C77.3402 104.308 76.3945 104.189 75.4419 103.834C75.0396 103.684 74.6776 103.529 74.4086 103.351C74.1755 103.197 73.7072 102.82 73.7626 102.174C73.7867 101.893 73.9085 101.677 74.011 101.537C74.1139 101.396 74.2355 101.28 74.3408 101.19C74.5465 101.012 74.8205 100.824 75.0831 100.643C76.1649 99.8954 77.9308 98.6851 79.4245 96.1243C79.6012 95.8215 79.9079 95.3927 80.415 95.256ZM57.1701 97.8852C57.1671 97.9256 57.1645 97.9668 57.1623 98.0087C57.1269 98.6639 57.1811 99.4243 57.3444 100.096C57.5141 100.794 57.7687 101.263 58.0294 101.488C58.5971 101.978 59.1504 102.245 59.7009 102.344C60.2385 102.441 60.8344 102.387 61.5164 102.14C60.4941 101.434 58.7466 100.234 57.1701 97.8852ZM80.4755 97.8848C78.8989 100.234 77.1516 101.434 76.1293 102.14C76.8114 102.386 77.4074 102.44 77.9451 102.344C78.4956 102.245 79.0489 101.977 79.6165 101.487C79.8773 101.262 80.1319 100.794 80.3015 100.096C80.4649 99.4239 80.5189 98.6635 80.4835 98.0083C80.4812 97.9664 80.4784 97.9252 80.4755 97.8848ZM81.3712 83.7838C81.8259 85.0528 82.5856 86.8817 83.4491 88.9965C84.9534 92.6803 86.771 97.2253 87.6254 100.795C87.7843 100.66 87.9284 100.52 88.043 100.381C88.2041 100.186 88.2596 100.051 88.272 99.9821C88.7047 97.5787 89.5131 94.0553 90.3049 90.7766C90.862 88.4699 91.4135 86.2732 91.8257 84.6537C91.9241 84.2672 92.0146 83.9134 92.0953 83.5988C91.02 83.9498 89.7722 84.3227 88.3494 84.4831C86.4177 84.7008 84.1426 84.5449 81.2992 83.5796C81.322 83.6451 81.3459 83.7132 81.3712 83.7838ZM56.399 83.4456C53.5557 84.4109 51.2806 84.5668 49.349 84.3491C47.9259 84.1887 46.6778 83.8156 45.6024 83.4645C45.6345 83.5895 45.6687 83.7205 45.7037 83.8574C46.0199 85.0937 46.4523 86.8019 46.9169 88.689C47.844 92.4542 48.9068 96.9616 49.4264 99.8481C49.4388 99.917 49.4945 100.052 49.6556 100.247C49.7702 100.386 49.914 100.526 50.0728 100.661C50.9271 97.0911 52.745 92.5462 54.2492 88.8625C55.1128 86.7477 55.8725 84.9188 56.3272 83.6498C56.3525 83.5792 56.3762 83.511 56.399 83.4456ZM80.2659 92.0183C80.7703 92.0183 81.1792 92.4273 81.1792 92.9317C81.1792 93.4361 80.7703 93.845 80.2659 93.845C78.4803 93.845 75.592 94.4993 74.3412 94.8404L73.9851 94.9374L73.6618 94.7601C72.4814 94.1128 70.6545 93.935 68.7101 94.0461C66.8027 94.1551 64.9498 94.5305 63.8428 94.8391L63.3288 94.9822L62.9594 94.6125C62.9615 94.6151 62.9273 94.5874 62.8249 94.542C62.7081 94.4903 62.5456 94.4343 62.3354 94.3779C61.9151 94.2651 61.3759 94.1693 60.7793 94.0914C59.5896 93.936 58.2653 93.8633 57.4127 93.8448C56.9084 93.8338 56.5084 93.4161 56.5194 92.9118C56.5304 92.4075 56.9481 92.0076 57.4524 92.0186C58.3503 92.0381 59.7433 92.1139 61.0158 92.2801C61.6503 92.363 62.2785 92.4713 62.8091 92.6137C63.0743 92.6849 63.3332 92.7693 63.5645 92.8717C63.6295 92.9005 63.6971 92.9332 63.7657 92.9698C64.9899 92.659 66.7687 92.3275 68.6059 92.2226C70.4904 92.1149 72.5885 92.235 74.2021 92.9876C75.6166 92.6228 78.3817 92.0183 80.2659 92.0183ZM109.465 36.3119C110.677 41.1584 107.977 51.1712 95.8585 54.4617C96.3622 54.8705 96.9289 55.288 97.487 55.6538C98.0354 56.0132 98.5447 56.3023 98.9515 56.4802C99.1559 56.5695 99.3091 56.6195 99.4122 56.6416C99.4299 56.6454 99.4445 56.6472 99.4559 56.649C99.8361 56.5129 100.347 56.2602 101.023 55.8977C101.707 55.5311 102.577 55.0428 103.514 54.55C105.422 53.5465 107.808 52.4116 110.6 51.6234C116.129 50.0623 123.194 49.8799 131.269 54.5882L131.654 54.8161L131.969 55.0049L132.065 55.359C132.186 55.7999 132.671 56.9206 132.315 58.0937C131.941 59.3293 130.774 60.4191 128.477 61.4551C127.483 61.9036 126.61 62.759 125.659 63.9396C125.188 64.5255 124.719 65.1623 124.21 65.8452C123.707 66.5215 123.169 67.2347 122.581 67.9405C120.202 70.7964 116.968 73.5534 111.273 73.9775C107.43 74.2636 103.394 72.6285 101.183 70.3327C100.073 69.181 99.3188 67.747 99.4633 66.2167C99.5464 65.3353 99.9179 64.516 100.561 63.7793C98.4495 63.4985 96.7606 62.8502 95.4288 61.9742C93.6223 60.7859 92.5279 59.2159 91.9258 57.7075C91.3306 56.2163 91.2029 54.7511 91.3663 53.7252C91.4404 53.2604 91.6045 52.6856 91.9994 52.3198C92.2329 52.1035 92.589 51.9293 93.0177 51.9953C93.3582 52.0478 93.6126 52.2331 93.7875 52.4134L93.8575 52.4901L94.0272 52.6841C94.1077 52.7753 94.1937 52.8709 94.2841 52.9704C104.635 50.6469 107.82 43.3787 107.901 38.8111C104.458 42.6038 100.604 43.8931 97.1168 44.263C95.1554 44.4711 93.3144 44.3883 91.778 44.3172C91.0285 44.2825 90.3786 44.2537 89.8191 44.2523C90.3655 45.027 90.8439 45.8829 91.2319 46.8215C91.2518 46.841 91.2874 46.8714 91.3436 46.9042C91.4861 46.9873 91.849 47.1373 92.5968 47.0438C92.709 47.0298 92.8433 47.02 92.9825 47.0327C93.1092 47.0442 93.3389 47.0825 93.556 47.2465C93.8175 47.444 93.9394 47.7299 93.9531 47.9975C93.9645 48.2186 93.9023 48.3968 93.8657 48.4874C93.7927 48.6688 93.6754 48.8425 93.6093 48.9403C93.5208 49.0712 93.4545 49.1639 93.3821 49.2783C93.323 49.3718 93.2856 49.4416 93.2621 49.4913C93.2748 49.4974 93.2889 49.5038 93.3045 49.5107C93.7666 49.7128 93.9774 50.2515 93.7752 50.7136C93.573 51.1757 93.0343 51.3865 92.5722 51.1844C92.2529 51.0447 91.9601 50.8515 91.7421 50.5787C91.5136 50.2929 91.4063 49.9673 91.3958 49.6433C91.3864 49.3556 91.4547 49.0873 91.5463 48.8578C91.093 48.7927 90.7221 48.6565 90.4231 48.482C90.1578 48.3272 89.9678 48.1536 89.8374 48.0035C89.7724 47.9289 89.7227 47.8605 89.6857 47.8039C89.6672 47.7757 89.6519 47.7503 89.6393 47.7284C89.6331 47.7174 89.6275 47.7072 89.6226 47.698C89.6202 47.6935 89.6178 47.6892 89.6157 47.6851C89.6146 47.683 89.6136 47.681 89.6126 47.6791C89.6121 47.6781 89.6117 47.6771 89.6112 47.6762C89.611 47.6757 89.6106 47.6748 89.6106 47.6748C89.6102 47.6742 89.6098 47.6734 90.4267 47.265L89.6099 47.6735L89.5934 47.6409L89.5798 47.6071C89.0304 46.2467 88.2628 45.0873 87.3645 44.1187C85.8156 42.4487 83.8753 41.3441 82.0047 40.7729C80.114 40.1956 78.3899 40.19 77.2605 40.5907L76.2725 39.1233C76.3344 39.0536 76.4006 38.9862 76.4696 38.9217C75.5015 38.8947 74.8302 38.8071 74.3863 38.6414C74.1088 38.5378 73.7394 38.338 73.5521 37.9254C73.4769 37.7596 73.4493 37.5998 73.448 37.4554C72.1021 37.5268 70.7282 38.0422 69.8285 38.492C69.5309 38.6408 69.2168 38.7628 68.9025 38.8017C68.5686 38.843 68.1717 38.7949 67.8328 38.5212C67.518 38.2669 67.3877 37.9237 67.3273 37.6692C67.3259 37.663 67.3247 37.6567 67.3233 37.6505C67.164 37.7025 66.9739 37.7709 66.7518 37.8565C65.8366 38.2095 64.4681 38.8252 63.3852 39.1259L63.1166 39.2004L62.8521 39.1123C62.2578 38.9143 61.688 38.9772 61.0397 39.2365C60.3555 39.5102 59.6707 39.964 58.8398 40.4982L58.5657 40.6743L58.2422 40.6375C54.7595 40.2395 52.4504 42.4672 49.7883 45.0352C48.9442 46.0344 48.5713 47.0459 48.348 47.6042C48.0322 48.3936 47.3249 48.7437 46.7136 48.9046C46.5186 48.9559 46.3137 48.9933 46.1046 49.0208C46.1851 49.3981 46.2138 49.8429 46.1084 50.3174C45.9989 50.8097 45.511 51.1202 45.0187 51.0109C44.5263 50.9015 44.2158 50.4135 44.3252 49.9212C44.385 49.6519 44.3303 49.3634 44.226 49.1026C44.176 48.9776 44.1205 48.8745 44.079 48.8049C44.0586 48.7706 44.0423 48.7458 44.0329 48.732C44.0299 48.7276 44.0276 48.7244 44.0262 48.7224L42.9334 47.265H44.76C45.3811 47.265 45.8837 47.2342 46.2487 47.1381C46.613 47.0423 46.6481 46.9358 46.652 46.9258C46.8284 46.485 47.1703 45.556 47.8653 44.5477C47.8485 44.5423 47.8312 44.537 47.8133 44.5317C47.4841 44.4346 47.0253 44.394 46.39 44.3983C45.7562 44.4026 45.048 44.4485 44.2061 44.4864C43.3808 44.5236 42.4634 44.5507 41.4851 44.5098C37.9215 44.3609 33.6398 43.3047 29.5692 38.7959C29.6428 43.3626 32.8237 50.6443 43.186 52.9704C43.3431 52.7973 43.4867 52.6356 43.6126 52.4901L43.6527 52.4458C43.8587 52.2267 44.1542 52.0507 44.5243 52.0359C44.8972 52.021 45.1984 52.1759 45.4013 52.3329C45.7886 52.6326 46.05 53.1102 46.2165 53.5729C46.5655 54.5423 46.6755 55.9361 46.2261 57.3931C45.3921 60.0974 42.744 62.7636 36.8203 63.6798C37.5179 64.442 37.9201 65.2954 38.007 66.2167C38.1514 67.747 37.3966 69.1808 36.2874 70.3325C34.0762 72.6283 30.0397 74.2637 26.1972 73.9775C20.5018 73.5534 17.2679 70.7964 14.8887 67.9405C14.3007 67.2348 13.7637 66.5215 13.2598 65.8452C12.7511 65.1624 12.2825 64.5255 11.8109 63.9396C10.8606 62.759 9.98722 61.9036 8.99286 61.4551C6.69567 60.4191 5.52928 59.3293 5.15489 58.0937C4.79947 56.9205 5.28443 55.7996 5.40463 55.3588L5.50118 55.0049L5.81603 54.8161C14.052 49.8745 21.2529 50.0376 26.87 51.6234C29.6619 52.4116 32.0483 53.5465 33.9559 54.55C34.8926 55.0428 35.7636 55.5311 36.4475 55.8977C37.1235 56.2602 37.6339 56.5129 38.0142 56.649C38.0256 56.6472 38.0403 56.6454 38.0581 56.6416C38.1612 56.6195 38.3144 56.5695 38.5188 56.4802C38.9255 56.3023 39.4349 56.0132 39.9833 55.6538C40.5413 55.2881 41.1077 54.8704 41.6113 54.4617C29.4935 51.1712 26.7932 41.1584 28.0047 36.3119L28.4703 34.4502L29.6216 35.9852C33.7094 41.4357 38.0272 42.5372 41.5616 42.685C42.4612 42.7226 43.3171 42.6979 44.1239 42.6615C44.9141 42.6259 45.6972 42.5763 46.3775 42.5717C47.0564 42.5671 47.7348 42.6041 48.3297 42.7795C48.609 42.8618 48.8786 42.9779 49.1251 43.1374C51.4507 40.9009 54.1757 38.4868 58.1171 38.7912C58.8145 38.3412 59.5764 37.8545 60.3614 37.5405C61.2024 37.2041 62.1327 37.0372 63.1389 37.2939C64.0556 37.0097 65.1006 36.5356 66.0945 36.1523C66.5859 35.9627 67.1161 35.776 67.5485 35.7188C67.747 35.6925 68.0878 35.6681 68.4166 35.8205C68.6038 35.9072 68.7875 36.052 68.9159 36.2684C69.0293 36.4597 69.0697 36.6569 69.0762 36.8263C70.1686 36.2884 71.9481 35.62 73.7584 35.62C74.1049 35.62 74.4308 35.6417 74.6993 35.723C74.967 35.8041 75.4675 36.0495 75.538 36.6607C75.5542 36.8016 75.54 36.9271 75.5177 37.0286C75.8619 37.0708 76.3907 37.1042 77.1834 37.1042C77.6176 37.1042 77.9736 37.115 78.2575 37.1387C78.5202 37.1607 78.7979 37.1989 79.0301 37.2884C79.145 37.3326 79.3347 37.421 79.4948 37.6014C79.6878 37.8189 79.7875 38.1158 79.7398 38.4269C79.7358 38.4535 79.7303 38.4791 79.7245 38.504C80.6331 38.5594 81.5874 38.7355 82.538 39.0258C84.5478 39.6395 86.6266 40.7865 88.3507 42.5101C89.3684 42.3677 90.6091 42.4345 91.8625 42.4925C93.4072 42.5641 95.1187 42.6381 96.9242 42.4466C100.484 42.069 104.425 40.6586 107.842 35.9937L108.993 34.4228L109.465 36.3119ZM26.3736 53.3814C21.2423 51.9327 14.6796 51.7391 7.06317 56.2003C6.88973 56.7818 6.77009 57.1252 6.90307 57.5641C7.04249 58.0241 7.58877 58.818 9.74386 59.7899C11.147 60.4227 12.2433 61.5636 13.2337 62.7941C13.7325 63.4138 14.2272 64.0863 14.7246 64.7539C15.2268 65.428 15.7385 66.1066 16.2922 66.7712C18.4797 69.397 21.2967 71.7808 26.3328 72.1558C29.6525 72.403 33.151 70.9559 34.9718 69.0655C35.8785 68.1241 36.264 67.1887 36.1884 66.3881C36.116 65.6211 35.591 64.6966 34.0348 63.8147L33.7449 63.6504L33.629 63.3382C32.2284 59.5706 27.3426 55.4283 18.5784 56.1669C18.0758 56.2092 17.6341 55.836 17.5917 55.3334C17.5494 54.8308 17.9224 54.3891 18.425 54.3467C27.4139 53.5892 33.0636 57.6252 35.0744 62.0556C41.6657 61.4412 43.8699 58.835 44.4806 56.8548C44.8066 55.7978 44.7158 54.8288 44.5103 54.2292C44.4022 54.348 44.2888 54.4714 44.1707 54.5975C43.4246 55.394 42.1659 56.4074 40.9845 57.1817C40.3915 57.5703 39.7871 57.9192 39.2504 58.1539C38.9831 58.2707 38.7071 58.3707 38.4414 58.4277C38.1962 58.4803 37.851 58.5211 37.5071 58.4065C36.9522 58.2215 36.2921 57.8871 35.5843 57.5077C34.8416 57.1095 34.0506 56.6639 33.1054 56.1667C31.2491 55.1901 28.9903 54.1201 26.3736 53.3814ZM130.407 56.2003C122.79 51.7391 116.228 51.9327 111.096 53.3814C108.48 54.1202 106.221 55.1901 104.365 56.1667C103.419 56.6639 102.628 57.1095 101.886 57.5077C101.178 57.8871 100.518 58.2215 99.963 58.4065C99.6191 58.5211 99.274 58.4803 99.0289 58.4277C98.7632 58.3707 98.487 58.2707 98.2197 58.1539C97.683 57.9192 97.0786 57.5703 96.4856 57.1817C95.3042 56.4074 94.0454 55.394 93.2994 54.5975C93.2424 54.5367 93.1867 54.4762 93.1319 54.4169C93.1039 55.09 93.2232 56.0306 93.6222 57.0303C94.1024 58.2333 94.9741 59.4887 96.4327 60.4481C97.7902 61.341 99.7039 62.0084 102.377 62.0964C104.372 57.6501 110.029 53.5869 119.045 54.3467C119.548 54.389 119.921 54.8308 119.879 55.3334C119.836 55.836 119.394 56.2092 118.892 56.1669C110.127 55.4283 105.242 59.5708 103.841 63.3384L103.725 63.6506L103.435 63.8147C101.879 64.6966 101.354 65.6211 101.282 66.3881C101.206 67.1887 101.592 68.1241 102.498 69.0655C104.319 70.9559 107.818 72.403 111.137 72.1558C116.173 71.7808 118.99 69.397 121.178 66.7712C121.732 66.1066 122.243 65.428 122.745 64.7539C123.243 64.0863 123.738 63.4138 124.236 62.7941C125.227 61.5636 126.323 60.4227 127.726 59.7899C129.881 58.818 130.428 58.0241 130.567 57.5641C130.7 57.1252 130.58 56.7819 130.407 56.2003Z" fill="black"/>
<path d="M48.9837 62.3394C44.7598 62.3394 40.2388 63.4877 39.4227 65.44C38.9426 66.5884 38.7585 68.0817 38.9563 70.2632C39.5393 76.6941 44.9028 81.747 50.0331 81.747C54.4638 81.747 56.3902 80.0661 57.6119 79.2205C61.926 76.2347 63.3672 67.9664 61.1099 65.44C58.2226 62.2085 53.1812 62.3394 48.9837 62.3394Z" fill="black"/>
<path d="M87.9432 62.3394C92.1256 62.3394 96.6023 63.4877 97.4104 65.44C97.8858 66.5884 98.0681 68.0817 97.8723 70.2632C97.295 76.6941 91.9841 81.747 86.9041 81.747C82.5168 81.747 80.6093 80.0661 79.3995 79.2205C75.1277 76.2347 73.7007 67.9664 75.9359 65.44C78.7948 62.2085 83.7868 62.3394 87.9432 62.3394Z" fill="black"/>
<path fill-rule="evenodd" clip-rule="evenodd" d="M32.9038 61.7678C32.7136 62.9475 32.4471 65.4211 32.9038 65.8778C33.2535 66.2275 34.2456 66.5772 34.7489 66.8481C35.0672 67.0195 35.327 67.1594 35.4155 67.2478C35.4822 67.3145 35.5099 67.6736 35.5556 68.2652C35.6663 69.6985 35.8825 72.497 37.0138 75.8103C38.4827 80.1119 43.8638 83.802 46.033 84.2586C54.028 85.9418 62.5872 83.802 65.6501 70.3026C65.6501 68.732 65.8802 68.0648 66.4688 67.4762C67.0397 66.9053 67.7247 67.0195 68.4097 67.0195C69.0947 67.0195 69.8938 67.036 70.4646 67.6068C71.0533 68.1955 71.2834 68.8626 71.2834 70.4332C74.3463 83.9326 82.9055 86.0724 90.9005 84.3893C93.0696 83.9326 98.4508 80.2425 99.9196 75.9409C101.051 72.6276 101.267 69.8292 101.378 68.3958C101.424 67.8042 101.451 67.4452 101.518 67.3785C101.606 67.29 101.866 67.1501 102.185 66.9788C102.688 66.7078 103.68 66.3581 104.03 66.0084C104.486 65.5518 104.22 63.0782 104.03 61.8984C102.85 61.8001 101.11 61.5061 99.4803 61.1632C93.54 59.9132 84.5071 57.2176 71.4921 62.8118C71.4921 62.8118 69.71 62.2461 68.4097 62.2245C67.1093 62.2029 65.4413 62.6811 65.4413 62.6811C52.4263 57.3153 43.3934 59.7826 37.4532 61.0325C35.8236 61.3754 34.0835 61.6695 32.9038 61.7678ZM62.0163 64.3936C55.1663 59.2561 39.2971 62.2245 38.7263 64.3936C36.2813 73.685 42.7221 85.6287 54.4813 81.8612C64.4174 78.6778 64.2343 66.0571 62.0163 64.3936ZM74.9171 64.5243C81.7671 59.3868 97.6363 62.3551 98.2071 64.5243C100.652 73.8156 94.2113 85.7593 82.4521 81.9918C72.516 78.8084 72.6992 66.1877 74.9171 64.5243Z" fill="black"/>
<path d="M47.818 63.0996C45.0019 64.6644 40.9677 64.4036 40.1378 66.2292C39.6258 67.9484 39.6258 69.3587 40.1378 70.4018C40.6255 71.3955 41.5942 68.9082 42.8471 67.9484C43.8494 67.1806 45.1174 67.2822 45.77 67.5331L45.7496 67.5622C42.8428 71.7119 41.9298 73.0152 41.9298 75.3569C41.9298 77.3596 45.3061 79.8734 45.77 79.2688C46.3568 78.504 46.026 76.4163 46.026 74.3137C46.026 71.445 47.818 67.7939 48.586 66.2292C49.186 65.0068 48.7849 62.5624 47.818 63.0996Z" fill="url(#paint0_linear_24_2)"/>
<path fill-rule="evenodd" clip-rule="evenodd" d="M51.4703 68.6115C52.7537 69.8736 52.4009 68.9406 52.4009 66.5628C52.4009 62.9748 48.586 65.307 46.8216 72.7657C46.6838 73.3481 45.4034 80.6292 51.4703 80.6053C57.7802 80.5804 55.7542 74.2074 52.4009 73.0714C50.9424 72.5773 49.9387 74.1173 49.7208 74.3966C49.6487 73.2986 50.1869 67.3493 51.4703 68.6115ZM51.4703 78.1275C50.2917 78.4394 49.8939 76.7375 50.2733 76.0903C50.7654 75.2508 51.5245 75.1204 52.0562 75.685C52.3771 76.0256 53.0105 77.7199 51.4703 78.1275Z" fill="url(#paint1_linear_24_2)"/>
<path fill-rule="evenodd" clip-rule="evenodd" d="M60.6463 73.4128C61.4537 71.1832 61.3911 67.4939 60.418 66.2292C59.4449 64.9645 57.2043 63.3586 54.938 64.0511C50.828 65.307 54.8287 74.5545 56.8788 77.5228C57.9074 79.012 59.8461 75.6225 60.6463 73.4128ZM57.6271 72.5532C56.5082 71.5168 56.2714 69.8461 56.5363 68.6115C56.8013 67.3768 57.678 66.708 58.5913 67.9484C59.5046 69.1888 59.048 73.8695 57.6271 72.5532Z" fill="url(#paint2_linear_24_2)"/>
<path d="M84.123 63.0996C81.3069 64.6644 77.2727 64.4036 76.4428 66.2292C75.9308 67.9484 75.9308 69.3587 76.4428 70.4018C76.9305 71.3955 77.8992 68.9082 79.1521 67.9484C80.1544 67.1806 81.4224 67.2822 82.075 67.5331L82.0546 67.5622C79.1478 71.7119 78.2348 73.0152 78.2348 75.3569C78.2348 77.3596 81.6111 79.8734 82.075 79.2688C82.6618 78.504 82.331 76.4163 82.331 74.3137C82.331 71.445 84.123 67.7939 84.891 66.2292C85.491 65.0068 85.0898 62.5624 84.123 63.0996Z" fill="url(#paint3_linear_24_2)"/>
<path fill-rule="evenodd" clip-rule="evenodd" d="M87.7753 68.6115C89.0587 69.8736 88.7059 68.9406 88.7059 66.5628C88.7059 62.9748 84.891 65.307 83.1266 72.7657C82.9888 73.3481 81.7084 80.6292 87.7753 80.6053C94.0852 80.5804 92.0592 74.2074 88.7059 73.0714C87.2474 72.5773 86.2437 74.1173 86.0258 74.3966C85.9537 73.2986 86.4919 67.3493 87.7753 68.6115ZM87.7753 78.1275C86.5967 78.4394 86.1989 76.7375 86.5783 76.0903C87.0704 75.2508 87.8295 75.1204 88.3612 75.685C88.6821 76.0256 89.3155 77.7199 87.7753 78.1275Z" fill="url(#paint4_linear_24_2)"/>
<path fill-rule="evenodd" clip-rule="evenodd" d="M96.4946 73.4128C97.302 71.1832 97.4677 67.2655 96.4946 66.0008C95.5215 64.7361 93.5093 63.3586 91.243 64.0511C87.133 65.307 90.9053 74.3261 92.9555 77.2945C93.9841 78.7837 95.6944 75.6225 96.4946 73.4128ZM93.9321 72.5532C92.8132 71.5168 92.5764 69.8461 92.8413 68.6115C93.1063 67.3768 93.983 66.708 94.8963 67.9484C95.8096 69.1888 95.353 73.8695 93.9321 72.5532Z" fill="url(#paint5_linear_24_2)"/>
</g>
<defs>
<linearGradient id="paint0_linear_24_2" x1="86.6684" y1="79.9167" x2="87.5956" y2="67.5325" gradientUnits="userSpaceOnUse">
<stop stop-color="#009DFF"/>
<stop offset="0.481387" stop-color="#A7FF86"/>
<stop offset="1" stop-color="#FFD900"/>
</linearGradient>
<linearGradient id="paint1_linear_24_2" x1="86.6684" y1="79.9167" x2="87.5956" y2="67.5325" gradientUnits="userSpaceOnUse">
<stop stop-color="#009DFF"/>
<stop offset="0.481387" stop-color="#A7FF86"/>
<stop offset="1" stop-color="#FFD900"/>
</linearGradient>
<linearGradient id="paint2_linear_24_2" x1="86.6684" y1="79.9167" x2="87.5956" y2="67.5325" gradientUnits="userSpaceOnUse">
<stop stop-color="#009DFF"/>
<stop offset="0.481387" stop-color="#A7FF86"/>
<stop offset="1" stop-color="#FFD900"/>
</linearGradient>
<linearGradient id="paint3_linear_24_2" x1="86.6684" y1="79.9167" x2="87.5956" y2="67.5325" gradientUnits="userSpaceOnUse">
<stop stop-color="#009DFF"/>
<stop offset="0.481387" stop-color="#A7FF86"/>
<stop offset="1" stop-color="#FFD900"/>
</linearGradient>
<linearGradient id="paint4_linear_24_2" x1="86.6684" y1="79.9167" x2="87.5956" y2="67.5325" gradientUnits="userSpaceOnUse">
<stop stop-color="#009DFF"/>
<stop offset="0.481387" stop-color="#A7FF86"/>
<stop offset="1" stop-color="#FFD900"/>
</linearGradient>
<linearGradient id="paint5_linear_24_2" x1="86.6684" y1="79.9167" x2="87.5956" y2="67.5325" gradientUnits="userSpaceOnUse">
<stop stop-color="#009DFF"/>
<stop offset="0.481387" stop-color="#A7FF86"/>
<stop offset="1" stop-color="#FFD900"/>
</linearGradient>
<clipPath id="clip0_24_2">
<rect width="137" height="137" fill="white"/>
</clipPath>
</defs>
</svg>
