<svg width="600" height="600" viewBox="0 0 600 600" fill="none" xmlns="http://www.w3.org/2000/svg">
<g clip-path="url(#clip0_14_51)">
<rect width="600" height="600" fill="white"/>
<path d="M299 8.5C459.991 8.5 590.5 139.009 590.5 300C590.5 460.991 459.991 591.5 299 591.5C138.009 591.5 7.5 460.991 7.5 300C7.5 139.009 138.009 8.5 299 8.5Z" stroke="black" stroke-width="17"/>
<path d="M567 300C567 447.46 447.46 567 300 567C152.54 567 33 447.46 33 300M46.1525 217C81.0583 110.176 181.516 33 300 33C418.484 33 518.942 110.176 553.847 217" stroke="black" stroke-width="8" stroke-linecap="round"/>
<path d="M258.529 481.5L244.53 470.5M258.529 481.5C264.03 486 267.13 486 277.53 486C287.93 486 302.53 481.5 302.53 481.5C302.53 481.5 313.129 486.587 323.529 486.587C333.929 486.587 337.029 486.587 342.53 482.087M258.529 481.5L249.03 486M249.03 486C249.03 486 234.03 491 225.53 486C217.029 481 217.258 467.039 220.986 447.5M249.03 486C268.03 503.5 265.03 508 302.53 508C337.53 508 331.03 502.5 352.029 486.587M220.986 447.5C226.529 416 257.075 356.841 250.529 359.5C220.986 371.5 206.029 363.333 193.029 359.5M220.986 447.5C220.986 447.5 212.426 442.983 211.53 438C207.029 413 193.029 359.5 193.029 359.5M193.029 359.5C189.212 374.88 179.707 395 175.53 415.5M150.029 276C180.029 293 145.396 322.336 114.029 320C67.0295 316.5 61.0296 274.971 40.0296 265.5C20.5296 256.706 25.0295 249 26.5294 243.5C96.5296 201.5 148.03 246.5 164.53 252C168.563 253.345 183.555 242.756 189.529 236.379M150.029 276C143.157 257.514 119.859 238.644 80.0294 242M150.029 276C214.126 271.5 198.53 226.14 193.029 232.5C192.056 233.625 190.863 234.955 189.529 236.379M189.529 236.379C132.329 224.681 120.53 180 125.529 160C163.029 210 206.029 181 214.126 194.5M197.029 219.5C198.029 215 195.029 211 195.029 211C200.529 211 205.629 210.5 207.029 207C208.002 204.569 209.865 199.485 214.126 194.5M406.029 220.5C398.029 217 410.529 209.313 405.029 210C397.029 211 395.029 207 395.029 207C392.432 200.567 388.798 195.08 384.551 190.5M214.126 194.5C225.529 183.5 237.029 172 254.529 174C261.529 169.5 268.029 165 275.529 167.5C284.529 165 297.529 157.5 297.529 161.5C297.529 165.5 298.529 167.25 303.029 165C307.529 162.75 314.829 160 322.029 160C333.529 160 313.029 166.5 337.029 166.5C351.829 166.5 340.029 169.5 336.029 174C348.04 169.738 369.933 174.74 384.551 190.5M450.03 276C420.03 293 454.663 322.336 486.03 320C533.029 316.5 539.029 274.971 560.029 265.5C579.529 256.706 575.029 249 573.53 243.5C503.529 201.5 452.029 246.5 435.529 252C431.496 253.345 416.504 242.756 410.53 236.379M450.03 276C456.902 257.514 480.2 238.644 520.03 242M450.03 276C395.029 276 400.111 224.5 407.03 232.5C408.003 233.625 409.196 234.955 410.53 236.379M410.53 236.379C467.73 224.681 479.529 180 474.53 160C443.03 203 401.03 186.5 384.551 190.5M342.53 482.087L357.03 470.5M342.53 482.087L352.029 486.587M352.029 486.587C352.029 486.587 367.029 491.587 375.529 486.587C384.03 481.587 383.8 467.625 380.073 448.087M380.073 448.087C374.53 416.587 343.984 357.428 350.53 360.087C380.073 372.087 395.03 363.92 408.03 360.087C408.03 360.087 403.254 378.337 398.384 398.5M380.073 448.087C380.073 448.087 388.633 443.569 389.529 438.587C391.401 428.188 394.917 412.859 398.384 398.5M263.03 523.5C271.03 533.167 286.73 554.6 285.53 563M322.029 563C325.863 551.667 328.63 532.5 339.03 520.5M398.384 398.5C415.766 432.833 450 502.7 444 523.5M175.53 533.5C168.03 505.5 166.117 461.688 175.53 415.5M175.53 415.5C165.53 440 143.129 458.4 125.529 500M250.529 407C258.196 407.167 274.33 408.3 277.53 411.5C287.696 408.667 311.129 404.7 323.529 411.5C329.029 410 342.13 407 350.53 407M250.529 423C245.012 413.541 242.24 440.345 250.529 447.5C256.386 452.555 262.78 453.703 270.03 451C283.883 445.835 264.529 447 250.529 423ZM350.299 422.998C355.817 413.54 358.589 440.343 350.299 447.498C344.443 452.554 338.049 453.701 330.799 450.998C316.946 445.833 336.299 446.998 350.299 422.998Z" stroke="black" stroke-width="8" stroke-linecap="round"/>
<path d="M213.527 273.019C195.028 273.019 175.229 278.048 171.654 286.598C169.552 291.628 168.745 298.168 169.611 307.722C172.165 335.887 195.655 358.016 218.123 358.016C237.527 358.016 245.964 350.654 251.315 346.951C270.209 333.875 276.52 297.663 266.634 286.598C253.99 272.446 231.91 273.019 213.527 273.019Z" fill="black"/>
<path d="M384.152 273.019C402.47 273.019 422.076 278.048 425.615 286.598C427.697 291.628 428.495 298.168 427.638 307.722C425.11 335.887 401.85 358.016 379.602 358.016C360.387 358.016 352.033 350.654 346.735 346.951C328.026 333.875 321.777 297.663 331.566 286.598C344.087 272.446 365.949 273.019 384.152 273.019Z" fill="black"/>
<path fill-rule="evenodd" clip-rule="evenodd" d="M143.104 270.516C142.271 275.683 141.104 286.516 143.104 288.516C144.636 290.047 148.981 291.579 151.185 292.765C152.579 293.516 153.717 294.129 154.104 294.516C154.397 294.808 154.518 296.381 154.718 298.972C155.203 305.249 156.149 317.505 161.104 332.016C167.537 350.855 191.104 367.016 200.604 369.016C235.619 376.387 273.104 367.016 286.519 307.894C286.519 301.016 287.526 298.094 290.104 295.516C292.604 293.016 295.604 293.516 298.604 293.516C301.604 293.516 305.104 293.588 307.604 296.088C310.182 298.666 311.19 301.588 311.19 308.467C324.604 367.588 362.09 376.959 397.104 369.588C406.604 367.588 430.171 351.427 436.604 332.588C441.559 318.077 442.506 305.821 442.991 299.544C443.191 296.953 443.312 295.38 443.604 295.088C443.992 294.701 445.13 294.088 446.524 293.338C448.728 292.151 453.073 290.62 454.604 289.088C456.604 287.088 455.438 276.255 454.604 271.088C449.438 270.658 441.817 269.37 434.68 267.868C408.664 262.394 369.104 250.588 312.104 275.088C312.104 275.088 304.299 272.611 298.604 272.516C292.909 272.421 285.604 274.516 285.604 274.516C228.604 251.016 189.044 261.821 163.029 267.296C155.892 268.797 148.271 270.085 143.104 270.516ZM270.604 282.016C240.604 259.516 171.104 272.516 168.604 282.016C157.896 322.708 186.104 375.016 237.604 358.516C281.12 344.574 280.318 289.301 270.604 282.016ZM327.104 282.588C357.104 260.088 426.604 273.088 429.104 282.588C439.812 323.28 411.604 375.588 360.104 359.088C316.588 345.146 317.391 289.873 327.104 282.588Z" fill="black"/>
<path d="M208.422 276.349C196.089 283.202 178.421 282.06 174.786 290.055C172.544 297.584 172.544 303.761 174.786 308.329C176.922 312.681 181.164 301.788 186.651 297.584C191.041 294.222 196.595 294.666 199.452 295.765L199.363 295.893C186.633 314.067 182.634 319.775 182.634 330.03C182.634 338.801 197.421 349.81 199.452 347.163C202.022 343.813 200.574 334.67 200.574 325.462C200.574 312.898 208.422 296.908 211.785 290.055C214.413 284.701 212.656 273.996 208.422 276.349Z" fill="url(#paint0_linear_14_51)"/>
<path fill-rule="evenodd" clip-rule="evenodd" d="M224.418 300.488C230.038 306.016 228.493 301.93 228.493 291.516C228.493 275.802 211.785 286.016 204.058 318.682C203.455 321.232 197.847 353.121 224.418 353.016C252.052 352.907 243.179 324.996 228.493 320.021C222.106 317.857 217.71 324.601 216.755 325.825C216.44 321.016 218.797 294.96 224.418 300.488ZM224.418 342.164C219.255 343.53 217.513 336.077 219.175 333.242C221.33 329.565 224.655 328.994 226.984 331.467C228.389 332.959 231.163 340.379 224.418 342.164Z" fill="url(#paint1_linear_14_51)"/>
<path fill-rule="evenodd" clip-rule="evenodd" d="M264.604 321.516C268.14 311.751 267.866 295.593 263.604 290.055C259.343 284.516 249.53 277.483 239.604 280.516C221.604 286.016 239.126 326.516 248.104 339.516C252.609 346.038 261.1 331.193 264.604 321.516ZM251.381 317.751C246.481 313.212 245.444 305.896 246.604 300.488C247.765 295.081 251.604 292.152 255.604 297.584C259.604 303.017 257.604 323.516 251.381 317.751Z" fill="url(#paint2_linear_14_51)"/>
<path d="M367.422 276.349C355.089 283.202 337.421 282.06 333.786 290.055C331.544 297.584 331.544 303.761 333.786 308.329C335.922 312.681 340.164 301.788 345.651 297.584C350.041 294.222 355.595 294.666 358.452 295.765L358.363 295.893C345.633 314.067 341.634 319.775 341.634 330.03C341.634 338.801 356.421 349.81 358.452 347.163C361.022 343.813 359.574 334.67 359.574 325.462C359.574 312.898 367.422 296.908 370.785 290.055C373.413 284.701 371.656 273.996 367.422 276.349Z" fill="url(#paint3_linear_14_51)"/>
<path fill-rule="evenodd" clip-rule="evenodd" d="M383.418 300.488C389.038 306.016 387.493 301.93 387.493 291.516C387.493 275.802 370.785 286.016 363.058 318.682C362.455 321.232 356.847 353.121 383.418 353.016C411.052 352.907 402.179 324.996 387.493 320.021C381.106 317.857 376.71 324.601 375.755 325.825C375.44 321.016 377.797 294.96 383.418 300.488ZM383.418 342.164C378.255 343.53 376.513 336.077 378.175 333.242C380.33 329.565 383.655 328.994 385.984 331.467C387.389 332.959 390.163 340.379 383.418 342.164Z" fill="url(#paint4_linear_14_51)"/>
<path fill-rule="evenodd" clip-rule="evenodd" d="M421.604 321.516C425.14 311.751 425.866 294.593 421.604 289.055C417.343 283.516 408.53 277.483 398.604 280.516C380.604 286.016 397.126 325.516 406.104 338.516C410.609 345.038 418.1 331.193 421.604 321.516ZM410.381 317.751C405.481 313.212 404.444 305.896 405.604 300.488C406.765 295.081 410.604 292.152 414.604 297.584C418.604 303.017 416.604 323.516 410.381 317.751Z" fill="url(#paint5_linear_14_51)"/>
</g>
<defs>
<linearGradient id="paint0_linear_14_51" x1="220.33" y1="350" x2="224.326" y2="295.753" gradientUnits="userSpaceOnUse">
<stop stop-color="#009DFF"/>
<stop offset="0.481387" stop-color="#A7FF86"/>
<stop offset="1" stop-color="#FFD900"/>
</linearGradient>
<linearGradient id="paint1_linear_14_51" x1="220.33" y1="350" x2="224.326" y2="295.753" gradientUnits="userSpaceOnUse">
<stop stop-color="#009DFF"/>
<stop offset="0.481387" stop-color="#A7FF86"/>
<stop offset="1" stop-color="#FFD900"/>
</linearGradient>
<linearGradient id="paint2_linear_14_51" x1="220.33" y1="350" x2="224.326" y2="295.753" gradientUnits="userSpaceOnUse">
<stop stop-color="#009DFF"/>
<stop offset="0.481387" stop-color="#A7FF86"/>
<stop offset="1" stop-color="#FFD900"/>
</linearGradient>
<linearGradient id="paint3_linear_14_51" x1="378.57" y1="350" x2="382.63" y2="295.763" gradientUnits="userSpaceOnUse">
<stop stop-color="#009DFF"/>
<stop offset="0.481387" stop-color="#A7FF86"/>
<stop offset="1" stop-color="#FFD900"/>
</linearGradient>
<linearGradient id="paint4_linear_14_51" x1="378.57" y1="350" x2="382.63" y2="295.763" gradientUnits="userSpaceOnUse">
<stop stop-color="#009DFF"/>
<stop offset="0.481387" stop-color="#A7FF86"/>
<stop offset="1" stop-color="#FFD900"/>
</linearGradient>
<linearGradient id="paint5_linear_14_51" x1="378.57" y1="350" x2="382.63" y2="295.763" gradientUnits="userSpaceOnUse">
<stop stop-color="#009DFF"/>
<stop offset="0.481387" stop-color="#A7FF86"/>
<stop offset="1" stop-color="#FFD900"/>
</linearGradient>
<clipPath id="clip0_14_51">
<rect width="600" height="600" fill="white"/>
</clipPath>
</defs>
</svg>
